<?xml version="1.0" encoding="UTF-8"?><svg id="b" xmlns="http://www.w3.org/2000/svg" width="240" height="180" viewBox="0 0 240 180"><defs><style>.d{fill:#fff;}.e{fill:#0091c7;}.f{fill:#2d4687;}.g{fill:#b9e5fb;}</style></defs><g id="c"><path class="f" d="M107.51,167.69h-3.9v-2.17h10.27v2.17h-3.9v12.31h-2.48v-12.31ZM118.5,173.32h4.53v-2.18h-4.53v-3.44h6v-2.18h-8.48v14.48h8.69v-2.18h-6.21v-4.51ZM133.48,177.88c-1.42,0-2.63-.5-3.61-1.48-.97-.98-1.47-2.21-1.47-3.66s.48-2.64,1.42-3.63c.95-.99,2.13-1.49,3.53-1.49,1.32,0,2.49.47,3.47,1.41l1.54-1.64c-1.35-1.26-3.03-1.89-4.99-1.89-2.14,0-3.92.7-5.3,2.08-1.38,1.38-2.08,3.13-2.08,5.16s.7,3.79,2.09,5.17c1.38,1.38,3.18,2.08,5.33,2.08,1.24,0,2.38-.25,3.39-.74.96-.46,1.76-1.07,2.38-1.83l-1.63-1.47c-1.04,1.28-2.41,1.92-4.08,1.92M143.96,165.52h-2.48v14.48h2.48v-6.68h7.74v6.68h2.48v-14.48h-2.48v5.62h-7.74v-5.62ZM184.21,167.59c1.36,1.39,2.04,3.12,2.04,5.16s-.69,3.76-2.04,5.15c-1.36,1.39-3.12,2.09-5.25,2.09s-3.89-.7-5.24-2.09c-1.36-1.38-2.05-3.12-2.05-5.15s.69-3.77,2.05-5.16c1.36-1.39,3.12-2.09,5.24-2.09s3.89.7,5.25,2.09M182.45,176.37c.93-.99,1.4-2.21,1.4-3.62s-.47-2.64-1.4-3.63c-.93-.99-2.1-1.49-3.49-1.49s-2.56.5-3.49,1.49c-.93,1-1.4,2.21-1.4,3.63s.47,2.63,1.4,3.62c.93,1,2.1,1.5,3.49,1.5s2.56-.5,3.49-1.5M190.57,165.52h-2.48v14.48h8.69v-2.18h-6.21v-12.3ZM212.06,172.75c0,2.02-.69,3.75-2.04,5.14-1.36,1.38-3.11,2.08-5.23,2.08s-3.88-.7-5.23-2.08c-1.35-1.39-2.04-3.12-2.04-5.14s.69-3.76,2.04-5.15c1.36-1.38,3.11-2.08,5.23-2.08s3.88.7,5.23,2.08c1.36,1.38,2.04,3.12,2.04,5.15M208.26,176.36c.93-.99,1.4-2.2,1.4-3.62s-.47-2.63-1.4-3.62c-.93-.99-2.1-1.5-3.48-1.5s-2.55.5-3.48,1.5c-.93.99-1.4,2.21-1.4,3.62s.47,2.63,1.4,3.62c.93,1,2.1,1.5,3.48,1.5s2.55-.5,3.48-1.5M224.95,176.68l-.12.1c-.94.74-2.04,1.11-3.25,1.11-1.42,0-2.64-.5-3.61-1.48-.97-.98-1.47-2.21-1.47-3.66s.48-2.63,1.42-3.63c.95-.99,2.13-1.49,3.53-1.49,1.32,0,2.49.47,3.48,1.41l1.53-1.64c-1.34-1.26-3.03-1.89-4.99-1.89-2.14,0-3.92.7-5.3,2.08-1.38,1.38-2.08,3.13-2.08,5.16s.7,3.79,2.09,5.17c1.39,1.38,3.18,2.08,5.33,2.08,1.24,0,2.38-.25,3.39-.74,1-.48,1.82-1.12,2.45-1.91v-6.17h-6.09v2.12h3.69v3.38ZM237.19,165.52l-3.32,5.38-3.35-5.38h-2.81l4.9,7.89v6.59h2.48v-6.59l4.91-7.89h-2.81ZM7.92,165.51l6.16,14.49h-2.57l-1.39-3.29H3.96l-1.39,3.29H0l6.16-14.49h1.76ZM9.18,174.53l-2.15-5.05-2.16,5.05h4.31ZM25.52,178.63c-1.23.9-2.9,1.37-4.97,1.37h-4.45v-14.49h4.45c2.07,0,3.74.46,4.97,1.36.88.66,1.59,1.51,2.09,2.54.5,1.03.76,2.15.76,3.33s-.26,2.31-.76,3.34c-.5,1.03-1.21,1.89-2.09,2.54M18.58,177.81h2.29c1.69,0,3.01-.58,3.91-1.72.74-.94,1.11-2.06,1.11-3.34s-.37-2.4-1.11-3.34c-.9-1.15-2.22-1.73-3.91-1.73h-2.29v10.13ZM35.96,179.99l5.81-14.48h-2.53l-4.17,10.46-4.15-10.46h-2.53l5.81,14.48h1.75ZM43.5,176.7l-1.39,3.29h-2.57l6.16-14.48h1.76l6.16,14.48h-2.57l-1.39-3.29h-6.16ZM44.42,174.53h4.3l-2.15-5.05-2.15,5.05ZM71.37,177.91c1.38,1.38,3.18,2.08,5.33,2.08,1.24,0,2.38-.25,3.39-.73.96-.46,1.76-1.08,2.38-1.83l-1.63-1.47c-1.04,1.27-2.41,1.92-4.07,1.92-1.42,0-2.63-.5-3.6-1.47-.97-.98-1.46-2.21-1.46-3.65s.48-2.63,1.42-3.63c.94-.99,2.13-1.5,3.52-1.5,1.32,0,2.49.47,3.47,1.41l1.53-1.63c-1.34-1.25-3.02-1.89-4.99-1.89-2.14,0-3.92.7-5.29,2.08-1.38,1.38-2.08,3.12-2.08,5.16s.7,3.78,2.08,5.16M86.62,173.31h4.53v-2.18h-4.53v-3.45h6v-2.18h-8.48v14.48h8.69v-2.18h-6.21v-4.51ZM159.75,171.61c0-.98.33-1.8,1.02-2.49.69-.69,1.5-1.03,2.48-1.03s1.77.33,2.46,1.03c.69.69,1.02,1.51,1.02,2.49v8.37h2.54v-8.37c0-1.12-.27-2.15-.81-3.07-.54-.91-1.27-1.65-2.18-2.19-.91-.55-1.93-.82-3.03-.82s-2.14.28-3.04.82c-.91.54-1.64,1.28-2.18,2.19-.54.92-.81,1.95-.81,3.07v8.37h2.54v-8.37ZM57.69,171.59c0-.98.33-1.8,1.02-2.49.69-.69,1.5-1.03,2.47-1.03s1.78.33,2.46,1.03c.69.69,1.02,1.5,1.02,2.49v8.39h2.55v-8.39c0-1.12-.28-2.15-.82-3.07-.54-.91-1.27-1.65-2.18-2.19-.91-.55-1.93-.82-3.03-.82s-2.13.28-3.04.82c-.91.54-1.64,1.28-2.18,2.19-.54.92-.81,1.95-.81,3.07v8.39h2.54v-8.39ZM73.49,135.48c1.87,1.13,3.39,2.65,4.52,4.52,1.13,1.88,1.7,4,1.7,6.28s-.57,4.4-1.7,6.29c-1.12,1.88-2.64,3.39-4.52,4.51-1.89,1.12-3.99,1.69-6.26,1.69s-4.4-.57-6.3-1.68c-1.88-1.12-3.41-2.64-4.52-4.52-1.12-1.89-1.69-4.01-1.69-6.3s.57-4.38,1.69-6.26c1.11-1.88,2.63-3.4,4.51-4.52,1.89-1.13,4-1.7,6.29-1.7s4.4.57,6.28,1.7M74.62,146.29c0-2.06-.71-3.77-2.18-5.23s-3.18-2.18-5.23-2.18-3.76.71-5.22,2.16c-1.46,1.46-2.17,3.17-2.17,5.22s.71,3.79,2.17,5.25c1.46,1.45,3.18,2.17,5.25,2.17s3.77-.71,5.22-2.17c1.46-1.46,2.17-3.16,2.17-5.22M101.72,133.83c-1.2,0-2.34.25-3.39.74-.85.39-1.61.91-2.27,1.53-.66-.63-1.42-1.14-2.27-1.53-1.05-.49-2.2-.74-3.4-.74-2.25,0-4.19.81-5.79,2.4-1.6,1.59-2.41,3.54-2.41,5.8v16.73h5.09v-16.73c0-.86.3-1.58.92-2.2.62-.62,1.34-.92,2.2-.92s1.58.29,2.2.92c.62.62.92,1.34.92,2.2v16.73h5.09v-16.73c0-.86.3-1.58.92-2.2.62-.62,1.34-.92,2.2-.92s1.6.29,2.21.91c.61.62.91,1.34.91,2.2v16.73h5.09v-16.73c0-2.26-.81-4.22-2.4-5.8-1.59-1.59-3.54-2.4-5.8-2.4M130.8,145.86c.64.61,1.17,1.32,1.58,2.14.5,1.01.75,2.11.75,3.27,0,2.06-.74,3.85-2.2,5.31-1.46,1.45-3.24,2.19-5.29,2.19h-11.83v-24.98h11.05c2.05,0,3.83.74,5.3,2.2,1.46,1.46,2.2,3.25,2.2,5.3,0,1.72-.52,3.26-1.55,4.57M118.9,153.68h6.74c.67,0,1.22-.23,1.7-.71.48-.48.71-1.04.71-1.7s-.23-1.22-.71-1.69c-.48-.47-1.04-.7-1.7-.7h-6.74v4.8ZM126.56,142.98c.48-.48.71-1.04.71-1.7s-.23-1.22-.71-1.7c-.48-.48-1.04-.71-1.7-.71h-5.96v4.82h5.96c.67,0,1.22-.23,1.7-.71M154.26,135.48c1.87,1.13,3.39,2.65,4.52,4.52,1.13,1.88,1.7,4,1.7,6.28s-.57,4.4-1.7,6.29c-1.12,1.88-2.64,3.39-4.52,4.51-1.89,1.12-3.99,1.69-6.26,1.69s-4.4-.57-6.3-1.68c-1.88-1.12-3.41-2.64-4.52-4.52-1.12-1.89-1.69-4.01-1.69-6.3s.57-4.38,1.69-6.26c1.11-1.88,2.63-3.4,4.51-4.52,1.88-1.13,4-1.7,6.28-1.7s4.4.57,6.29,1.7M155.39,146.29c0-2.06-.71-3.77-2.18-5.23s-3.18-2.18-5.23-2.18-3.76.71-5.22,2.16c-1.46,1.46-2.17,3.17-2.17,5.22s.71,3.79,2.17,5.25c1.46,1.45,3.18,2.17,5.25,2.17s3.77-.71,5.22-2.17c1.46-1.46,2.17-3.16,2.17-5.22M180.96,135.48c1.88,1.13,3.4,2.65,4.52,4.52,1.13,1.88,1.7,4,1.7,6.28s-.57,4.4-1.7,6.29c-1.12,1.88-2.64,3.39-4.52,4.51-1.88,1.12-3.99,1.69-6.26,1.69s-4.4-.57-6.3-1.68c-1.89-1.12-3.41-2.64-4.52-4.52-1.12-1.89-1.69-4.01-1.69-6.3s.57-4.38,1.69-6.26c1.11-1.88,2.63-3.4,4.51-4.52,1.88-1.13,4-1.7,6.28-1.7s4.4.57,6.28,1.7M182.09,146.29c0-2.06-.71-3.77-2.18-5.23-1.47-1.47-3.18-2.18-5.23-2.18s-3.76.71-5.22,2.16c-1.46,1.46-2.17,3.17-2.17,5.22s.71,3.79,2.17,5.25c1.46,1.45,3.18,2.17,5.25,2.17s3.76-.71,5.22-2.17c1.46-1.46,2.17-3.16,2.17-5.22M208.59,138.86c-.9-1.52-2.14-2.75-3.66-3.66-1.53-.91-3.24-1.37-5.09-1.37s-3.59.47-5.12,1.37c-1.52.91-2.75,2.14-3.66,3.66-.91,1.53-1.37,3.25-1.37,5.12v14.79h5.09v-14.79c0-1.42.48-2.59,1.48-3.58,1-.99,2.17-1.47,3.58-1.47s2.56.48,3.56,1.47c1,1,1.47,2.17,1.47,3.58v14.79h5.09v-14.79c0-1.87-.46-3.59-1.37-5.12M44.04,143.87l-1.07-.13-2.73-.33c-1.69-.22-2.73-.5-3.38-.84v-.02c-.36-.19-.66-.48-.84-.86,0-.02-.01-.03-.02-.05-.02-.04-.04-.08-.05-.12-.08-.22-.13-.45-.13-.69,0-1.09.88-1.97,1.96-1.97h5.53s.03,0,.04,0h1.76c.66,0,1.22.23,1.7.71s.71,1.04.71,1.73c0,.25-.06.6-.13.83,1.92.48,3.45,1.23,4.55,2.25.44-.94.67-1.97.67-3.08,0-2.07-.74-3.87-2.21-5.33-1.46-1.47-3.24-2.21-5.29-2.21h-7.41c-2.05,0-3.83.74-5.29,2.21-.12.12-.23.24-.33.37-1.1,1.06-1.56,2.29-1.72,3.38-.05.34-.07.67-.07.97v.1c0,5.73,5.24,7,9.17,7.45l3.59.42c.37.05.71.1,1.02.16.58.1,1.04.23,1.43.37.98.25,1.71,1.13,1.71,2.19,0,1.17-.89,2.13-2.03,2.25-.02,0-.03.01-.05.02h-.14s-.03,0-.05,0h-6.39s-.03,0-.05,0h-.8s-.09,0-.13-.01c-.84-.05-1.55-.54-1.91-1.26-.01-.02-.02-.04-.03-.05-.02-.05-.04-.09-.06-.14-.18-.41-.3-.88-.3-1.4,0-.32.05-.62.13-.91h-.01s0-.05.02-.06c-1.01-.25-1.96-.55-2.83-1.11-.64-.35-1.22-.74-1.7-1.19-.46.97-.7,2.02-.7,3.17,0,.18.01.36.03.54h0s0,.04,0,.05c0,.07.01.14.01.21.02.58.09,1.14.23,1.67.32,1.26.97,2.39,1.95,3.38,1.34,1.34,2.95,2.07,4.81,2.18v.03h7.92c2.06,0,3.85-.75,5.3-2.21.26-.26.49-.54.7-.81,1.2-1.37,1.58-3.01,1.58-4.52v-.14c-.01-1.66-.5-3.04-1.44-4.14-1.4-1.64-3.79-2.67-7.2-3.07"/><path class="f" d="M171.55,9.26h0C171.55,4.15,167.4,0,162.29,0c-.06,0-.12.01-.17.01-.04,0-.09,0-.13,0h-18.13c-.16,0-.31-.03-.47-.03-.06,0-.12,0-.18,0-.04,0-.09,0-.13,0h-46.34s-.09-.01-.14-.01c-.05,0-.09.01-.14.01h-18.46s-.09,0-.13,0c-.06,0-.12,0-.18,0-5.11,0-9.26,4.14-9.26,9.25v74.15h0s0,.06,0,.1c0,.14.01.27.02.41v26.01h0s0,.07,0,.1c0,5.11,4.14,9.26,9.26,9.26.05,0,.09,0,.14-.01h18.58s.09.01.14.01c.05,0,.09,0,.14-.01h46.56s.09.01.14.01c.05,0,.09,0,.14-.01h18.58s.09.01.13.01c5.12,0,9.26-4.15,9.26-9.26,0-.03,0-.07,0-.1h0v-26c0-.14.02-.28.02-.42,0-.03,0-.06,0-.1h0V9.26Z"/><path class="e" d="M120.05,105.87c10.85,0,19.96-7.36,22.67-17.35h3.58c-2.76,11.9-13.43,20.78-26.17,20.78s-23.41-8.88-26.17-20.78h3.43c2.71,9.99,11.82,17.35,22.67,17.35M120.13,55.56c-12.66,0-23.28,8.76-26.12,20.55h3.4c2.74-9.95,11.83-17.27,22.65-17.27s19.9,7.32,22.64,17.27h3.55c-2.84-11.79-13.46-20.55-26.12-20.55"/><path class="g" d="M120.11,102.46c-8.94,0-16.52-5.85-19.12-13.93h3.38c2.46,6.27,8.54,10.73,15.68,10.73s13.23-4.45,15.68-10.73h3.48c-2.6,8.08-10.17,13.93-19.12,13.93M120.11,62.28c-8.9,0-16.44,5.8-19.08,13.83h3.39c2.49-6.22,8.54-10.62,15.64-10.62s13.16,4.4,15.65,10.62h3.49c-2.63-8.03-10.17-13.83-19.08-13.83"/><path class="d" d="M162.1,82.43s.15,2.19-1.82,2.54h-23.56c.06-.38.11-.75.15-1.14.06-.46.1-.92.1-1.4,0-.51-.04-1-.1-1.5-.04-.43-.1-.86-.17-1.28h.45c.08,0,.13-.01.13-.02h2.12v.02h4.72s0-.01,0-.02h2.11v.02h10.39v-6.11l-5.8-3.41-1-.59-4.06-2.38s-1.51-.69-1.75-2.69l-.67-4.61-.17-1.16-1.32-9.05-.13-.91-1.01-6.87-.12-.85-1.05-7.15-.12-.79-.47-3.24c-.72-5.12-3.52-7.25-3.28-7.03,0,0-.95-1.16-3.3-2.27h0c-2.27-1.05-6.86-1.77-12.17-1.77-.03,0-.06,0-.09,0h0s-.06,0-.06,0h0s-.06,0-.09,0c-5.3,0-9.89.72-12.17,1.77h0c-2.35,1.1-3.31,2.26-3.31,2.26.24-.23-2.56,1.91-3.28,7.03l-.47,3.24-.12.79-1.05,7.15-.12.85-1.01,6.87-.13.91-1.32,9.05-.17,1.16-.67,4.61c-.24,1.99-1.75,2.69-1.75,2.69l-4.06,2.38-1,.59-5.79,3.41v6.11h10.38v-.02h2.11s0,.01,0,.02h4.72v-.02h2.12s.06.01.14.02h.42c-.15.89-.24,1.8-.24,2.73s.09,1.75.22,2.6h-23.53c-1.97-.35-1.82-2.54-1.82-2.54v-10.74c.1-1.81,1.85-2.56,1.85-2.56l2.99-1.72,1-.57,6.29-3.62,1.24-7.78.19-1.22,1.33-8.34.16-.96,1.28-8.03.14-.88.99-6.18c.68-9.15,7.56-13.02,7.56-13.02,2.84-2.18,6.81-3.13,10.23-3.53,1.95-.26,4.2-.41,6.59-.42h0s.45,0,.45,0h0c2.36.02,4.58.17,6.5.43,3.43.4,7.39,1.35,10.23,3.53,0,0,6.88,3.87,7.57,13.02l.99,6.18.14.88,1.28,8.03.15.96,1.33,8.34.2,1.22,1.24,7.78,6.29,3.62.99.57,2.99,1.72s1.75.74,1.85,2.56v10.74M120.09,71c-6.26,0-11.33,5.07-11.33,11.33s5.07,11.33,11.33,11.33,11.33-5.08,11.33-11.33-5.07-11.33-11.33-11.33"/></g></svg>